/* XPM */
static char *e6ed7f72445542a4f85524d15644d90dzinRQc27nM8KCJrD[] = {
/* columns rows colors chars-per-pixel */
"64 64 34 1 ",
"  c black",
". c #3C0E41",
"X c #D134DF",
"o c #E138F1",
"O c #E138F0",
"+ c #E238F1",
"@ c #C02FCC",
"# c #E138EF",
"$ c #C02FCD",
"% c #E238F2",
"& c #C02FCE",
"* c #E238F3",
"= c #E138EE",
"- c #3C0E40",
"; c #D335E1",
": c #E438F3",
"> c #E338F2",
", c #E338F3",
"< c #E439F4",
"1 c #C230CF",
"2 c #3B0E3F",
"3 c #58165E",
"4 c #9C28A6",
"5 c #A329AE",
"6 c #A329AF",
"7 c #A329AD",
"8 c #A429AF",
"9 c #8B2394",
"0 c #1B051D",
"q c #0D020F",
"w c #0E020F",
"e c #0E0210",
"r c #0C020D",
"t c white",
/* pixels */
"                               .XoOOOOOOOOOOOOOOOOOOOOOOOOOOOO+@",
"                               .XoO##OOOOOOOOOOOOOOOOOOOOOOOOO+@",
"                               .XoOOOOOOOOOOOOOOOOOOOOOOOOOOOO+$",
"                               .XOOoO#OOOOOOOOOOOOOOOOOOOOOOOO%&",
"                               .XOOOOOOOOOOOOOOOOOOOOOOOOOOO#O*&",
"                               .XoO####OOOOOOOOOOOOOOOOOOOOO#O%&",
"                               .XoOO#=#OOOOOOOOOOOOOOOOOOOOOOO+$",
"                               .XoOO#=#OOOOOOOOOOOOOOOOOOOOOOO+@",
"                               .XoOO###OOOOOOOOOOOOOOOOOOOOOOO+@",
"                               .XoOOOOOOOOOOOOOOOOOOOOOOOOOOOO+@",
"                               .XoOOOOOOOOOOOOOOOOOOOOOOOOOOOO+@",
"                               .XoOOOOOOOOOOOOOOOOOOOOOOOOOOOO+@",
"                               .XoOOOOOOOOOOOOOOOOOOOOOOOOOOOO+@",
"                               .XoOOOOOOOOOOOOOOOOOOOOOOOOOOOO+@",
"                               .XoOOOOOOOOOOOOOOOOOOOOOOOOOOOO+@",
"                               .XoOOOOOOOOOOOOOOOOOOOOOOOOOOOO+@",
"                               .XoOOOOOOOOOOOOOOOOOOOOOOOOOOOO+@",
"                               .XoOOOOOOOOOOOOOOOOOOOOOOOOOOOO+@",
"                               .XoOOOOOOOOOOOOOOOOOOOOOOOOOOOO+@",
"                               .XoOOOOOOOOOOOOOOOOOOOOOOOOOOOO+@",
"                               .XoOOOOOOOOOOOOOOOOOOOOOOOOOOOO+@",
"                               .XoOOOOOOOOOOOOOOOOOOOOOOOOOOOO+@",
"                               .XoOOOOOOOOOOOOOOOOOOOOOOOOOOOO+@",
"                               .XoOOOOOOOOOOOOOOOOOOOOOOOOOOOO+@",
"                               .XoOOOOOOOOOOOOOOOOOOOOOOOOOOOO+@",
"                               .XoOOOOOOOOOOOOOOOOOOOOOOOOOOOO+@",
"                               .XoOOOOOOOOOOOOOOOOOOOOOOOOOOOO+@",
"                               .XoOOOOOOOOOOOOOOOOOOOOOOOOOOOO+@",
"                               .XoO###OOOOOOOOOOOOOOOOOOOOOOOO+@",
"                               .XoOOOOOOOOOOOOOOOOOOOOOOOOOOOO+@",
"                               -;:>,,,>>>>>>>>>>>>>>>>>>>>>>>><1",
"..............................2345566657777777777777777777777789",
"XXXXXXXXXXXXXXXXXXXXXXXXXXXXXX;40qwwwwwwwwwwwwwwwwwwwwwwwwwwwwer",
"oooOOooooooooooooooooooooooooo:5w                               ",
"OOOOOOOOOOOOOOOOOOOOOOOOOOOOOO>5w                               ",
"O#OoO#OOOOOOOOOOOOOOOOOOOOOOOO,6w                               ",
"O#OOOOOOOOOOOOOOOOOOOOOOOOOO#O,6w                               ",
"OOO####OOOOOOOOOOOOOOOOOOOOO#O,6w                               ",
"OOOO#=#OOOOOOOOOOOOOOOOOOOOOOO>5w                               ",
"OOOO#=#OOOOOOOOOOOOOOOOOOOOOOO>7w                               ",
"OOOO###OOOOOOOOOOOOOOOOOOOOOOO>7w                               ",
"OOOOOOOOOOOOOOOOOOOOOOOOOOOOOO>7w                               ",
"OOOOOOOOOOOOOOOOOOOOOOOOOOOOOO>7w                               ",
"OOOOOOOOOOOOOOOOOOOOOOOOOOOOOO>7w                               ",
"OOOOOOOOOOOOOOOOOOOOOOOOOOOOOO>7w                               ",
"OOOOOOOOOOOOOOOOOOOOOOOOOOOOOO>7w                               ",
"OOOOOOOOOOOOOOOOOOOOOOOOOOOOOO>7w                               ",
"OOOOOOOOOOOOOOOOOOOOOOOOOOOOOO>7w                               ",
"OOOOOOOOOOOOOOOOOOOOOOOOOOOOOO>7w                               ",
"OOOOOOOOOOOOOOOOOOOOOOOOOOOOOO>7w                               ",
"OOOOOOOOOOOOOOOOOOOOOOOOOOOOOO>7w                               ",
"OOOOOOOOOOOOOOOOOOOOOOOOOOOOOO>7w                               ",
"OOOOOOOOOOOOOOOOOOOOOOOOOOOOOO>7w                               ",
"OOOOOOOOOOOOOOOOOOOOOOOOOOOOOO>7w                               ",
"OOOOOOOOOOOOOOOOOOOOOOOOOOOOOO>7w                               ",
"OOOOOOOOOOOOOOOOOOOOOOOOOOOOOO>7w                               ",
"OOOOOOOOOOOOOOOOOOOOOOOOOOOOOO>7w                               ",
"OOOOOOOOOOOOOOOOOOOOOOOOOOOOOO>7w                               ",
"OOOOOOOOOOOOOOOOOOOOOOOOOOOOOO>7w                               ",
"OOOOOOOOOOOOOOOOOOOOOOOOOOOOOO>7w                               ",
"OOO###OOOOOOOOOOOOOOOOOOOOOOOO>7w                               ",
"OOOOOOOOOOOOOOOOOOOOOOOOOOOOOO>7w                               ",
"+++%*%++++++++++++++++++++++++<8e                               ",
"@@$&&&$@@@@@@@@@@@@@@@@@@@@@@@19r                               "
};
