/* XPM */
static char *_ff943855eed4b4cbd812630e5cb0897Wp2wR2j7wEPTyyML[] = {
/* columns rows colors chars-per-pixel */
"64 64 96 2 ",
"   c #449426",
".  c #47962A",
"X  c #48972C",
"o  c #4A992E",
"O  c #4D9A32",
"+  c #519C36",
"@  c #539E3A",
"#  c #56A13E",
"$  c #57A240",
"%  c #5CA344",
"&  c #5EA748",
"*  c #5FA849",
"=  c #60A547",
"-  c #61A549",
";  c #62AA4D",
":  c #67A750",
">  c #66AD52",
",  c #6AAB54",
"<  c #6DAD59",
"1  c #71AE5D",
"2  c #69B156",
"3  c #6CB25A",
"4  c #70B65F",
"5  c #76B162",
"6  c #79B366",
"7  c #7DB56B",
"8  c #82B86F",
"9  c #82B771",
"0  c #85BA74",
"q  c #8CBE7C",
"w  c #94C284",
"e  c #96C588",
"r  c #9BC68C",
"t  c #98C88C",
"y  c #9EC992",
"u  c #A3CA96",
"i  c #A8CC9C",
"p  c #AED1A2",
"a  c #B1D3A6",
"s  c #B6D5AC",
"d  c #B8D7AD",
"f  c #B9D5B1",
"g  c #BCD9B4",
"h  c #BDD9B6",
"j  c #BED8B6",
"k  c #C0DAB7",
"l  c #C3DDBB",
"z  c #C5DEBD",
"x  c #C6DEBF",
"c  c #C7DEC1",
"v  c #CADFC2",
"b  c #CBE1C4",
"n  c #CCE2C6",
"m  c #CEE2C8",
"M  c #CFE3C9",
"N  c #D1E4CB",
"B  c #D2E5CC",
"V  c #D3E6CE",
"C  c #D4E4CF",
"Z  c #D6E7D0",
"A  c #D7E7D1",
"S  c #D6E8D1",
"D  c #D8E9D3",
"F  c #DAE8D7",
"G  c #DEEBDA",
"H  c #DFEBDC",
"J  c #E0ECDC",
"K  c #E2EDDE",
"L  c #E4EFDF",
"P  c #E5EDE3",
"I  c #E5F0E3",
"U  c #E6F0E4",
"Y  c #E7F0E4",
"T  c #E9F2E5",
"R  c #EEF4EB",
"E  c #EFF5ED",
"W  c #F0F6EC",
"Q  c #F1F7F0",
"!  c #F3F7F2",
"~  c #F4F8F3",
"^  c #F6F9F5",
"/  c #F7FBF6",
"(  c #F8FBF6",
")  c #F8FBF7",
"_  c #F7F9F9",
"`  c #F9F9FA",
"'  c #FAF9FA",
"]  c gray98",
"[  c #F9FCF9",
"{  c #FBFCFA",
"}  c #FBFCFB",
"|  c #FBFBFC",
" . c #FDFBFD",
".. c #FDFDFD",
"X. c #FDFEFD",
"o. c #FDFCFE",
/* pixels */
". . . . X . . . . . . . . . . . X O X X . . . . . . . X . . . . . . o o . . . . . . . . . . . . X . . . o o o . . . . . . . . X ",
". . . . . . . . . X . . . . . X O . X X . . . . . . . . . . . . . o o . . . . . . . . . o . . . . . . o o . o o . . . . . . . . ",
"X . . . . . . . . . . . . X X o . . X X X X . . . . . . . . . . o o . . . . . . . . . . . . . . . . o o . . . X o X . . . . . . ",
". . . X . . X . . . X . . X o X . . . . X o . . . o . . . . . o o . . . . . . .   . . . . . . . . o o . . . . . X o . . . . . X ",
". . . . . X . . . . . X X X X . . . . . X X o . . . . . . . o o . . . . .   O % $ + .   . . . . o o . . . . . . . X o X . . . . ",
". X X . . . . . . . . X o X . . . . . . . X X o . . . . . o . . . . . . # w b P P m w @ . . . O o X . . . . . . . . . o X . . . ",
". . . . . . . . . . o o . . . . . . . . . . . . o o . . o o . . . . X & v X.X.X. .X.' c % . X X . . . . . X . X . . . . o X . . ",
". X . X X . X . . o X . . . . . X . . . . . . . . o o o X . . . . . + j  .X.X.X.X.X.X. .f + X . . . . . . . . . . . . . . o X o ",
". . . . . . . . o o . . . . . . . . . . X . . . . X + X . . . . .   5 ^ X. .X.X.X.X. .X.~ 5   . . . . . . . . . . . . . . X O o ",
"X . . . . . . o X o X . . . . . . . . . . . . . . . o X . . . . .   r  .X. .X. . .X. .X.X.e . . . X . X . . . . X . . . . o X o ",
". . . . . X o o . . X o . . . . . . . . . . . # # . . . X X . . .   u X.X.X. .X.X. .X.X.X.r . . . . . . . . . . . X . . X . . . ",
"X . . . X o . . . . . o o . . . . . . O o o @ # # . . . . . . . . . 0 '  .X.X.X.X.X.X. .^ 7   .   . . . X . .   . . . . . . . . ",
". . . . o . . . . . . . o o . . . . O % + $ % + . . . . . . . . .   @ C X.X.X. . .X.X.X.m @ . . X . .   . . .   . . . . . . X . ",
". . X o . . . . . . . . . X o . . . o @ $ % + X X X O X o X X X   .   1 J X.X.X. .X.X.J 1 . . . . .   # * = * # X . . . . . . . ",
". X o X . . . X . . . . . . . . . @ i c c c b z z c c z c z x p 1 o . . , d P ( ' P s ; . . . .   X = 3 > = ; 3 = X . . . . . X ",
"o o . . X . . . . . . . . . .   $ j ' X. .X.X. .X.X.X.X.X.X.X...E k 7 +   . - 5 5 - o   . . . . . * 3 # # > = # 2 # . . . . . . ",
"o . . . . . . X . . . . . . . - c ' '  .X.X.X.X................. .X.( N q @   .   . . . . . . . o 2 * # 2 % ; > # > X . . . . . ",
". . . . X . . . . . . . . . : v ' ' | | X.' [ ' { ' [ [ [ ......X.X. . .X.A e % . . . . . . . . o 3 # > # O + 2 % ; X . . . . X ",
". . . . . X . X . . . .   , Z ' ' X.X.F 0 6 7 7 6 6 6 6 w E ....X. .X.X.X.X.X.J u = . . . . . . X 2 > # ; ; # 2 * ; . . . . . . ",
". . . . . . . . . . .   1 F ' ' '  .Z , .     .     .   e ......X.X. .X.X. . .X.X.a . . . . . . . # 4 * # # & ; % # . . X . X . ",
". X . . . . X . . . . 6 J  .( X.X.b & . X X X . . . . - P X.X. . . .X.X.X. .X.X.X.d . . . . . . . . # 2 2 2 ; + o . . . . . X . ",
". . . . . . . . . . 9 P  .( X.X.z % . . . . X X . . . u X. .X.X.X.X.X. .X. .X. .X.d . . . . . . . . . X O o . . . . . . . . . . ",
". . X . . . . . . , P  . .X.{ g # . . . . . X o X . : T  .X. .X.X.X.X. .X.X. .X.X.d . . . . . . . . . . . . . . X . . . . . . . ",
". . . . . . X X . + i ~ X. .a # . . . . . . . X X X p X. .X.X.X. . .X.X. .X.X.X.X.d X . . . . . . . . . X . . . . . . . . X . . ",
"X . . . . . . o o X O r W p O . . . . . . . . . . < E X.X.X. . .X.X. .X.X.X. .X.X.d . X X O . . . . . . . . . . . X . . . o o o ",
". . X . . . . . O o . o 1 O . . . . . . . . . . X a  .X. .X.X.X.X. .X.X. .X. .X.X.d . . O X .       .   . . . . . . . . . . + o ",
". . . . . . o o . o o . . . . . . . . . . . .   1 W X.X. .X.X.X.X.X. . . .X.X.X.X.l , < < , , < , : , , # . . . . . . . o o . o ",
". . . . . o o . . . . o . . . . . . . . . . . O j X.X. .X.X. . . .X.X.X.! G X. .X.( R ! R R Q R W W R E q   . . X . . X o . . . ",
". . . . o o . . . . . . o . . . . . . . . . X 7 ! X. .X.X. .X.X.X.X.X.X.s s X.X.X.X. . . .X.X.X.X. .X.X.w   . . . . o o . . . . ",
". . . o o . . . . X . . o o . . . . . . . X + l X. .X.X.X.X. .X. . .X.E < s X. .X.X.X.X.X.X. .X.X.X.X. .w   .   . . o . . . . . ",
". . o o . . . . X . X . . . o X . . . . o o 7 ^ X.X. . . . .X.X.X.X.X.a X r F Z F C Z Z D Z Z Z Z Z D Z 8   . . o o . . . . . . ",
". o o . . . . . . . . . . . o o . . . o o + v X. .X.X.X.X.X.X. .X. .P , . @ @ + + + + + + + + + + + + # X . . o o . . . . . . . ",
"o o . . . . . . . . . . . . . X O X X X   0 ( X.X. . .X. .X.X.X.X. .i . X X . . . . . . . . . . . . . . o . o o . . . . . . . X ",
". . . . . . . . . . . . . . . . X O X . + V X. .X.X.X.X.X.X. . .X.P ; X X X . X . . . . . . . . . . . . . O o . . . . . . . . . ",
". . . . o . . o . . . . . . . X X O O . q ' X.X. .X.X. .X. .X.X.X.u X X . . . . . . . o . . . . . . . . o o o . . . . . . . . . ",
". . . . . . . . . . . . . . X o X . . $ N  . .X. .X.X. .X.X. .X.G ; X . . . . . . . . . . . . . . . . o o X . o X . . . X . . X ",
". . . . o . . . . . X . . X o X . . . & R  .X.X.X. .X.X.X.X. .X.r . . . . . X . . . X . . . . . . . o o . . . . o X . . . . . . ",
". . . o . . . . . . . . X o X . . . . % T X.X. .X.X.X. . .X.X.G $ . . . . . . . . . . . X . . . . o X . . . . . . o X . . . . X ",
". . . . . . . . . . . . o X . . . . . - T X. .X.D s ' X. .X.X.R 9 . . . . X X . . . . . . . . . o . . . . . . . . . o o . . . . ",
"o . . . . . . . . . o o . . . X . . . = Y X.X.X.V # i { X.X. .X.E q X . . . . . . . o . . . . o o . . . . . . . . . . X o . . . ",
"  o . . . . .   X X o X . . . . . . . = T X.X. .N O O u ^ X.X. .X.~ w . . . . . . . . . . X o X . . X . . . . . . . . . . o . . ",
".   . . . o . . X o X . . . . . . . . = T X.X.X.V + . O e ! X. .X.X.^ r o . . . . . . . o o X . . . . . . . . . . . . . . o O o ",
"o . o . .   . o X X . X . . . . . . . = T X. .X.V + O X X w E X.X.X. .( u + . . . . . . o o . . . . X . . X . . . . . . . . O o ",
"  . . . . o o o . . . . . . X . . . . = T X. .X.V + . . X X 9 T  . .X.X.' i + . . . o o . X X . . . . . . . . . . . . + O . . o ",
". . . . . o o . . . . . X . . . . . . - T X. .X.N O   . . . . 7 P X.X. .X.X.a + . X o . . . . o . . . . . . . . . . o % @ o .   ",
". . . . o o . . . . . . . . . . . .   - W  . .X.V O X . . . . . 5 L X. .X. .T % . o . . . . . . X . . X . . O # o @ % @ + o . . ",
". . . o X . .   . .   .     . . . X X & E  .X.X.m + . . . . . . . 1 T X.X.X.T = o . . . . . . . . o . . . . O # + # @ O . . . . ",
". X O X . . o 3 9 7 7 9 7 7 7 q t y t y R X.X. .V O . . . . . . . O Z  . .X.T ; . . . . . . . . . . X . . . o @ @ # o . . . . . ",
". o X . . . + C { { X.| ' _ ' _ ' _ _ ' ' ..X.X.V O . . . o . . . + Z X.X.X.P =   . . . . . . . . . . . . . @ % # X . . . X . . ",
"O X . . . . + D ....X.X.X.X.{ ......[ .._ ..X.X.N O . . . . . . . + C X.X.X.T % . . . X X . . . . X . . X o # O o . . . . . . . ",
". . . . . . + D ..X.X.X.X.X.{ X.X.{ X.{ ..' ..X.V + . . . . . . . O C X.X. .T =   . . . . . . . . .   X $ # @ X . . . . . . X . ",
". . . . . . + V [ ^ { ^ ^ ^ ^ ^ ^ ^ ^ ^ ^ ^ ^ / v O . . . . . . . + Z  .X.X.P =   . . . X . . . . . . @ % @ X . . . . . . X . . ",
". . . . . . . 2 5 5 5 5 5 q e 7 8 0 8 w q 0 5 5 , . . . . . . . . O C X. .X.T = . . . . . . . .   X # # + X . . X . . . . . . . ",
". . . X . . . .         . X > < & * > % # o .     . . . . . . . o + Z X.X.X.T %   . . . . . . . X @ # @ X . . . X X . . X . . . ",
". . . . . . . . . . . . . . . $ * * O .   . . . . . . . . . . o . + V X.X. .I &   . . . . . . . @ % @ . . . . . X X X X . . X . ",
". . . . . X . . . . . . . . . . . . . .   . . . . . . . . o o o . + Z X.X.X.I $ . . . . . . @ $ @ + X . . . . . . X X X . . . . ",
". . . . . . . . . . . . . . . . . . . . . . . . . . . X X X . . . O V X.X.X.T - . . X X . o $ $ O . . . . X . . . . . X X . . . ",
". . X . . . o o . X . . . . X . . . . . . X . . . X X o o . . . . + Z  .X. .T $   . X o . . + @ X . . . . . . . X . . . o o . X ",
"X . X . . . . o X o . . . . . . . X . . . X . . X X o o X . . . . + C X.X. .T =   . . X O o . . . . . . . . X . . X . . X X O o ",
". . . . X   . o O o X . . X . . . . X . . . . . X X O X . . . . . O V X.X. .T %   . . o o o . . . . . X . . . . . . . . X X O o ",
"X . . . . . o o . o o . . . . . . . . . . . . . X o . X O X . . . + N ( X.( L %   X o X X X o X . . . . . X . . . . . X X o . X ",
". . . . . o o . . . o o . . X . X . . X . . . X X X . . X X . . . . 1 7 7 7 5 O . o o .     X o X . . . . . . . . . . o o X . . ",
". . . . o o . . . . . . o X . . . . . . . . o o . . . . . . X . . .       . . . o o .   X X . X o X .   X . . . . . o o . . . . ",
". . X o o . . . . . . . o X . . . . . . . o o . . . . . . . X . . . . . . . . X o   . X . . . . X o X .   X . . X o X . . . . . "
};
