/* XPM */
static char *f7b259d2e8834cc0bd9fda83763a08c0GHnSStZTebqOmPY1[] = {
/* columns rows colors chars-per-pixel */
"64 64 256 2 ",
"   c #A4A4A4",
".  c #A0A0A0",
"X  c gray58",
"o  c #9A9A9A",
"O  c black",
"+  c #A7A7A7",
"@  c gray63",
"#  c #A4A5A5",
"$  c gray65",
"%  c #A2A2A2",
"&  c gray66",
"*  c #398666",
"=  c #6DC460",
"-  c #909090",
";  c #9F9F9F",
":  c #979797",
">  c gray62",
",  c #868787",
"<  c gray61",
"1  c #FEFFFF",
"2  c #747374",
"3  c #348261",
"4  c #61312C",
"5  c #A9A9A9",
"6  c #6DC467",
"7  c #5F3320",
"8  c #78797A",
"9  c #180301",
"0  c #ABAAAB",
"q  c #FCFDFB",
"w  c #B2B2B2",
"e  c #838383",
"r  c #9D9D9D",
"t  c #98B2BF",
"y  c #6BBA6A",
"u  c #8C8C8D",
"i  c #9C743F",
"p  c #ACACAD",
"a  c #74C765",
"s  c #041907",
"d  c #9B6A37",
"f  c #F9FDF7",
"g  c #93ABC0",
"h  c #976B40",
"j  c #0C0203",
"k  c #6EC85F",
"l  c #FAFAF2",
"z  c #F1F0EC",
"x  c #3D8B69",
"c  c #3D856C",
"v  c #976C35",
"b  c #5C5B5D",
"n  c #4C3E3B",
"m  c #3C8A5F",
"M  c #0C0C10",
"N  c #251D1F",
"B  c #AFAFAF",
"V  c #FDFAFE",
"C  c #260E0B",
"Z  c #F7FDFD",
"A  c #808080",
"S  c #F8F7FB",
"D  c #4C494C",
"F  c #68BC61",
"G  c gray54",
"H  c #010507",
"J  c #504F52",
"K  c #666465",
"L  c #56322B",
"P  c #696A6B",
"I  c #572F20",
"U  c #3F3D3E",
"Y  c #4C2F28",
"T  c #F6F8F7",
"R  c #11141A",
"E  c #92AFC1",
"W  c #7F5B39",
"Q  c #A36C40",
"!  c #46955F",
"~  c #60362B",
"^  c #454C4E",
"/  c #B6BBB7",
"(  c #388351",
")  c #419057",
"_  c #F0FAEF",
"`  c #302726",
"'  c #A3754C",
"]  c #90AAB6",
"[  c #75C268",
"{  c #6CBF73",
"}  c #F1FDFB",
"|  c #86C885",
" . c #B6B6B6",
".. c #906E4D",
"X. c #408773",
"o. c #9C92CB",
"O. c #22262B",
"+. c #603B28",
"@. c #848D92",
"#. c #896BD9",
"$. c #5A5355",
"%. c #78C577",
"&. c #4E9B5D",
"*. c #494345",
"=. c #FCF8FA",
"-. c #2E795F",
";. c #1D4033",
":. c #F0F0E7",
">. c #D2C0AF",
",. c #DFD6C6",
"<. c #55318A",
"1. c #5A3729",
"2. c #6F7474",
"3. c #513B33",
"4. c #9D8568",
"5. c #98AEC7",
"6. c #9BC7B8",
"7. c #5D6164",
"8. c #367964",
"9. c #8D9AA6",
"0. c #68544E",
"q. c #619981",
"w. c #BCBBBD",
"e. c #9D7C59",
"r. c #C0C0BD",
"t. c #3F1F13",
"y. c #5F3F31",
"u. c #9B7049",
"i. c #3F2822",
"p. c #235240",
"a. c #73C671",
"s. c #9FB7C6",
"d. c #F6F3F2",
"f. c #418D71",
"g. c #B0967F",
"h. c #66B761",
"j. c #8D633C",
"k. c #9D40AF",
"l. c #6E6D6E",
"z. c #9D6D3B",
"x. c #674021",
"c. c #657DAF",
"v. c #694F9C",
"b. c #2D6555",
"n. c #363738",
"m. c #9E6A3E",
"M. c #463836",
"N. c #305B60",
"B. c #4B597C",
"V. c #9DA9B5",
"C. c #40424A",
"Z. c #857774",
"A. c #E9FBF9",
"S. c #E8F8EE",
"D. c #B7D8B3",
"F. c #549C71",
"G. c #8E602D",
"H. c #9A8D7B",
"J. c #426D52",
"K. c #8E71E1",
"L. c #5D3E3E",
"P. c #301612",
"I. c #957959",
"U. c #9BCD9B",
"Y. c #4B2A18",
"T. c #C0E6C3",
"R. c #5A8F83",
"E. c #E7EBEB",
"W. c #56A962",
"Q. c #6FB179",
"!. c #86BB8C",
"~. c #0D180F",
"^. c #101F25",
"/. c #DBF1EB",
"(. c #3F8060",
"). c #4F8E70",
"_. c #DACFBC",
"`. c #EEECDC",
"'. c #A58F7B",
"]. c #A98560",
"[. c #A98A68",
"{. c #525D5B",
"}. c #111F39",
"|. c #6CA890",
" X c #2B4848",
".X c #574A46",
"XX c #E2F4DB",
"oX c #3B7658",
"OX c #A86B45",
"+X c #C3C7C9",
"@X c #649D8A",
"#X c #694D33",
"$X c #654A3A",
"%X c #2B4F55",
"&X c #4E697B",
"*X c #645A5B",
"=X c #7AB19C",
"-X c #CDEBE4",
";X c #A7B2BD",
":X c #D8CEC3",
">X c #846952",
",X c #CBC8C6",
"<X c #CBE0D0",
"1X c #9F99D8",
"2X c #A2A3A4",
"3X c #BDAE94",
"4X c #6583AA",
"5X c #DCDCDA",
"6X c #7B624A",
"7X c #63659B",
"8X c #7F9399",
"9X c #A2B1C4",
"0X c #ACDEAD",
"qX c #5CA475",
"wX c #45606E",
"eX c #2D603D",
"rX c #B1B6BC",
"tX c #9BB3B7",
"yX c #E5DACD",
"uX c #54578F",
"iX c #8CB4B3",
"pX c #2E784E",
"aX c #A799CB",
"sX c #5D7AA6",
"dX c #78645A",
"fX c #7C9D83",
"gX c #4C5F54",
"hX c #4C2F65",
"jX c #64587B",
"kX c #4C334F",
"lX c #B5BFD0",
"zX c #1B303E",
"xX c #9CA6AA",
"cX c #75779E",
"vX c #8F9EBC",
"bX c #3F7067",
"nX c #798385",
"mX c #83AEA9",
"MX c #3A4A4C",
"NX c #AFD5CD",
"BX c #6C6C7D",
"VX c #0D2C18",
"CX c #8E9892",
"ZX c #313131",
"AX c #90B49C",
"SX c #7E7068",
"DX c #63816B",
"FX c #785BB4",
"GX c #7585B6",
"HX c #737C5F",
"JX c #638786",
"KX c #D3D4D7",
"LX c #091E1E",
"PX c #A4D4A9",
"IX c #B1A8A6",
"UX c #A79E99",
/* pixels */
"$   5 $ # #   + $   # #   # + $ X + 0       $ < o +   # #   # ; X w.  # $ $ $ + % + $ #   # # + 8 B 0 % w r.+ $ $ $ $ $ $ # B  .",
"#     # #   #     #   # # % 0 o X 5         & X G 5         # @ < . # $ # $ $ # # #     $ $ # < A #     % % $ $ $ $ $ # $ $ $ . ",
"# # #     #   # # #   #   #   - $ $     #   & - ; +   # #   $ r : & $ + $ $ #   #   # $ $ $ $ + , +   #   # + $ + $     # $ $ $ ",
"#   # # # #           # #   $ o %   # $     $ < r $     #   + o - 5   $ +   % #   # $ $ # # $   A   #     $ + $ $ #         #   ",
"  # # # #   # #   #     #   $ o @ $ : > $     ; ; % . . . .   : - # @ % # $ #     # #       # $ : #     #   $ $ $ #     #   # $ ",
"# # #     #         # #     # %   $ $   #   % #   #         + : - &           #   #     #     # < > $   # #   $ + # # # # #     ",
"#   #       # #   #     #   + : < . % $ %     2.2 8 2 2 2 2 2 P K 8 8 < # % %             # % & A e & %   %     $ #   # #     # ",
"#   # # # #   # #     # # % 5 G , o o       8 H s s s s s s s s ~.s ~.P %   2X% 2X      # #   @ : w   $ $ $   #   $ #         + ",
"$ #   # #   #     #         $ o $ 0 & $ {.~.;.oX).Q.y y y y y y y Q.Q.eXH o # # % # # # # #   % e + + + $         # + $ + u , $ ",
"A > $   # # #   #           #   ;   7.R ;.b.(.m ! %.k = = = [ a a [ [ h.&.J.` {.# # # # # # # $ , # + $   #     #   # + # B w   ",
"@ X +           # % % #   # # o r # C.O ;.).f.3 F.{ a [ a k k = k a = 6 %.&.( ;.M {.  .     $ % , + + # @ % # # # #   $ + # # $ ",
" .o % # # %   #   # #       # > r # ^ O ;.3 -.-.m ) &.h.y h.F h.F = a.a.{ W.) p.O ^ # ;     $ @ 8 . & $ $ $ #     # # $ + $ $ $ ",
"@ 0 #     # #   #     #     # % > # D O DXNX6.6.6.6.6.T.<XT.T.T.T.Q.&.W.qX&.m p.O J   ;     # . A @ $ $ $ %   # #   # # # $ $ # ",
"$ # # #     #     #   # #   # > r # *.O gX@.9./ w / r.>.>.>.>.>./ F.pX(.c 8.c  XO ^ # @ #   % $ l.X 0 % $ r u $       $ + + # $ ",
"# #   # # #   #   @         5 u - 5 *.O M VX^ 8 8 Z.4.[.4.4.4.H.fXDXq.).X.* f.p.O ^   o % . # > U 7.> # # % 2 - +     # .   + r ",
"    #     #         #     % 0 , D r D O 8 -X<X5X5X5X5X:.z z :.:.:.z S.=X3 x * p.O C.8 K e   X 2.J b l., . < 2 X # % # X e 2 b b ",
"# # #     #   #   # # #     0 G - w.J O H H ;.8 P SXI.e.I.I.e.I.4.yXl AX8.3 f.p.O ^ > X $ + # + p 0 &   $ & + + $ # # + w  .w.w.",
"# #   # #   #   #     #     & - o % *.O 7.;X/ D./ ,X_.,.,.,.yXyX,.l 1 CXn.^.LXMXe : % > @ @     % %   #                 . % +   ",
"    #   @ #   #             & - - & D O C.2.u 3X3X3X3X>.>.>.>.>.>.g.H.UXIXn O j b D l.+   # #     %   # #     # # # # # # #   # ",
"  #   # $     #   # # # %   + - X u ^ M ^.~.M...G.G.G.G.G.G.G.G...>XdX:X1 nXs s s s ^.P e A e : #   %       #   # #   #     #   ",
"+   # #   # #   # # #   #   & G 2.^.zXN.8Xw.; 4.].[.].[.].4.H.4.'.`.q :./.AXm ! ! ! ( VXO O O b CXo   @     #   #     # # # # % ",
": #     #               % . o R R  XN.N.JXtX+Xz :.:.z z :.z z z :.`.XX0Xy y y { { { { ) ( oX(.;.H 7.+ # . .   # #   #       # # ",
"X $       # # #   #     % # : O M %X8.-.6.S.S.l l =.V V V =.l l _ PX!.%.F = k = 6 a.6 F Q.&.( -.b. XN A         #   #   # # #   ",
"X &   # # # # # # # # % : ^ C.zXzXN.).qX!.0XT.S._ _ _ _ _ _ XXD.U.%.F = a = = [ = = = 6 %.W.( * f.b.;. Xn.gX; % #     # # #     ",
"e #       #       % > # b O H wX%Xb.qX%.y F a.| | !.!.| | | | 6 F = a 6 a 6 6 6 a k = 6 %.&.( x * * f.eXO H # #   # #       #   ",
"% % #   #       # # # u b O H N.b.b.F.a.k k k F | D.D.D.D.[ h.[ a = = = a = 6 6 6 = = a a.&.! 3 -.-.-.pX;.O.U 7.# @     #     # ",
"& +     # # # # #   ; K U s }.N.%Xp.F.%.k k = F U.f 1 1 S.0XU.%.y = = k = = = = 6 a = 6 F ) ( @XmXmXiXiXtXfXO R   . # #     #   ",
".     # # #   # % # J O }.wX&X&X&XbXF.{ F = 6 h.U.f T T _ f XX| [ a k k a a [ [ y F h.| !.|.R.NXZ Z 1 } 1 <XO N # . #       # % ",
"& %       # # # % # D O %Xt 5.g 5.iXF.( W.{ y y AX} S T T E.XX| y a.6 6 6 6 { y { W.) <X} } } T l d.`.`.d.,XO N # @ # #   #   # ",
"  + % # #   % $ . % ^ O ^ ;Xt ;X9Xt R.( ) ! ! ( =XZ T Z E.R.).! m ! x ) ) ) ! ) ! m m -X1 T f l l _.].4.H.I.O N . >             ",
"2 @ 0 $ # $ # ; $ & $.O N 0.*XK *X7.bXc * 3 f.3 =XZ T } -Xc 3 * * * 3 8.c * c * x 3 (.fXg.g.g.[.g.[.h h u.W O N 0 $ $ # # # # + ",
"D K X % % @ .   , *.` C t.Y.I I Y n.b.c X.* c b.|.1 d.} -X8.-.x c c X.c c X.X.X.c c m HX..m.d v v d Q OXOXh Y.3.J l.< ; . @ @ X ",
"0 < ; B  . .w p $.O C L.~ +.~ 7 ~ *.oX3 3 3 q.|.6.=.S S /.=X|.X.* x * * x * x * * * pXJ.#Xj.v i i i Q OXQ i e.6XO M u /  .r.B + ",
"$ $ $ # $ $ $ ; D O P.L.L 4 7 4 4 n J.3 X.3 iX} _ l q V A.A./.@X-.* x m m m * * * f.oXH O x.' e.v v i d d d u.W j M , # # +   & ",
"  # $ # # # @ o U O C +.I I 7 4 1.n J.c X.* 6.A.S._ A.} A.A./.@X8.x x x x x * m x x (.s O +.e.h i v z.z.Q m.' W O ~., $ @   #   ",
"# # # #   %   5 *.O C ~ x.7 7 7 I n J.8.* 3 R.@XR.q.q.q.q.q.q.* 3 * * 3 * 3 3 3 * * 8.s O j 9 x.' u.h u.Q z.' W O M , + %     # ",
"    # # # # l.J i.P.Y.+.7 I 7 ~ 4 n J B.B.B.uXB.B.B.uX7XsXsXsXc.c.4X4X4Xc.c.c.c.GX7XwXH O t.x.W i i h u.m.m.' W O M , $ %     # ",
"            O.O ` L.~ 7 L 1.4 L.kXhXhX<.<.<.<.<.<.<.v.#.#.#.#.K.#.K.K.#.#.#.#.#.K.FX<.H O x.].i i v z.z.d Q ' W O M e # @ #     ",
"+ $ $ # # # O.O C t.Y.+.7 ~ 4 4 $.jXjXv.v.v.v.7Xv.uXcXo.aXo.aXaXo.o.o.o.o.o.o.1X1Xo.cXC.n.L.#Xj.Q z.d v v m.u.W O R ,   @       ",
"o < o @     K n.M O C y.7 7 4 4 K xXt 5.9X5.5.t 5.vXlXS 1 =.S S q Z f Z Z q q } f q V Z T b O +.u.OXz.i i ' e.6XO M e # @     # ",
"< @ # 0 # # + - $.O P.y.1.4 4 t.*.] t ] E E 5.g tX] lX/.E.Z V =.q f l f q =.q f f =.S q _ gXO #X' m.i v W W W $X` ^ -         # ",
"+ + 0 & # # % X K O C M.3.L P.O R 9.t ] E E E E g ] t ] rXE.d.z :.d.=.=.S q q f f q T T l $.O i.>X....y.j O O ` ; - &     # # # ",
"    %       @ : 8 O O O O O O O ^.9.t ] E E E g g t g t 8XR M H R r.1 T Z q Z q q V S Z d.{.O O O O O .X- u - :   G @ $ # #   # ",
"#   # #     & A - u G , , , 8 O }.9.t ] g g g g g ] g s.8XO O 7.u $.MXrXq l l =.S f T S T +XB ^ O n.G r     #   $ o o + # # # # ",
"  # # #     # e   #   #   # o O }.9.;Xt t t t g t t E s.xXO H V.w.` O $ 1 l q 1 q 1 q 1 1 1 1 SXO D & . % %   $   + &     # $ # ",
"#           # , . # %   % % - O N 8 u , @.@., @.@.@.nX2.P U D     e R H.`.:X_.,.,.,.,._._.:X:X0.O D + > # #   # $ #   $     # $ ",
"          # @ - &   #     # X O j U Y Y 3.L L L Y 3.N O j % # ;   P M 3.6X>Xj.h h h h h h ..I.i.O U B % #   # + p $ 5 - + 5 #   ",
"    #     # % e   #   # %   X O O Y 1.1.~ 4 4 4 4 y.i.O 9 : % #     % n O +...Q m.Q Q d h u...t.O N A X r r ; X e o - J K . # u ",
"+ $         # - #   #   % # X O 9 Y 1.7 4 ~ +.1.L L i.O j o       ; # n O 1...i d d d v i h I.t.O n & o &  . .r X # < ; ; @ @ % ",
": o # # #   # o #     #     X O 9 Y ~ ~ 4 4 1.~ y.3.i.O j o   % # ;   n O Y 4.' d v d z.d i I.C O J ,X+X,Xr. .w  ./  .w.r.w $ p ",
">   $       # o %     # % # X O O Y y.I I I 7 I I y.i.O j o # % # ;   D n 3.1.x.j.h d v j...j.>XdXK l.2 l.< % % % @ @ @ r . $ # ",
"0 $         # o %       % # X O j J $.*X$.0.0.0.$XP.` N U > # % %   # e   $.O Y.g.'.g.'.'.'.H.,.1 : O b 0 5 $ + + + +   # + + $ ",
"%     #     # o   # # #   % X O O.9.V.V.V.] V.rXP ZX, o +       @ #   #   U O *X1 z l l l l l z =.X O e w.@ + + $ + # % # # $ + ",
"#     #     # o % # # # @   : O O.9.s.g 5.5.g s.&XZXr # #     % % % % .   b R 7.,XKXT q q V q S 1 o O 2 @ % # #       #   # # $ ",
"# $ # #   # + u   + # # # > u O O.@.V.9.vXg 9Xs.@.R K # @ $ & 0 p & p 5 & + & BXO b E.z :.z z z d.u O 2 $ @   @         # #   # ",
"% o %     r 5 P 8 # . % 2 R j j M N N N ` ` .X.Xn b : > 2Xr X G 2 J 2 - X : $ kXO C 0.0.$X#X0.$XdXM.O 2 $ @ # # #       %     > ",
"X u . + & : @ A A o > ; J O O C C 9 9 9 9 9 C 9 9 O b p - , 8 2 8 8 2.2.2 A o D O j Y 7 7 7 7 I Y t.O 2.$ > #       # $ $ # $ 5 ",
"0 0 & +   0 B w / w 5 5 P O O j 9 9 9 9 9 9 9 9 O O b w 5 0 B B w w w B B 0 p BXO j Y ~ +.7 ~ 1.3.C O l.# @   #   # @   $ + #   ",
"%   ;     % % X r @ @ @   K O.U *.M.n n n M.n *.n.U , @ %   @ @ @ @ . @ @ . @ - N U 2 Z.Z.Z.Z.Z.l.$.O.e $ @   #     $ #   # # # ",
"#   # # # # # o # # # #     # $ # $ $ # # # #   $ # # # # # # #   # # # # # #   B +Xw 5 +     + X < 5 $ $ + #     #         #   ",
"  # $ # #   # o   # # #   %             #   # # # % %             # %         % @ $ > ; @ @ . $ G : 0 $ $ $ #   #   # # # # # # ",
"#       #     G   # #   # #         #         # #   #   # # #       @ % . > . o X   %     #   5 G : 5 # $ $ # #   # #     # # # ",
"    #     #   - #             # #   %   # # #   # #     #     # # # %   % % $ + % %     # # % 0 , - 0 # $ $   #         # $ + + ",
"# # # # #     , % #   # #   # #     # # # #   # # #       # # # # #     #     % :   %     # % p 2 8 &   +   # $   # # + + + $ # "
};
